<svg width="102" height="31" viewBox="0 0 102 31" fill="none" xmlns="http://www.w3.org/2000/svg">
<path d="M100.841 27.0162C100.841 27.3922 100.767 27.7645 100.623 28.1119C100.479 28.4593 100.268 28.7748 100.002 29.0406C99.7356 29.3063 99.4197 29.517 99.0721 29.6607C98.7245 29.8043 98.352 29.878 97.9758 29.8776H4.21069C3.45072 29.8784 2.72155 29.5774 2.18353 29.0408C1.64552 28.5042 1.34273 27.7759 1.34174 27.0162V4.1969C1.34273 3.43678 1.6454 2.70813 2.18331 2.17093C2.72121 1.63373 3.45037 1.33189 4.21069 1.3317H97.9751C98.3514 1.3317 98.7241 1.40581 99.0717 1.54981C99.4194 1.69381 99.7353 1.90487 100.001 2.17094C100.267 2.43701 100.478 2.75287 100.622 3.10049C100.766 3.44811 100.84 3.82067 100.84 4.1969L100.841 27.0162Z" fill="white"/>
<path d="M97.9763 30.5432H4.21113C3.27493 30.543 2.37705 30.1715 1.7145 29.5102C1.05194 28.849 0.678844 27.952 0.677063 27.016L0.677063 4.19751C0.678448 3.2611 1.0513 2.36347 1.71383 1.70154C2.37636 1.0396 3.27447 0.667416 4.21113 0.666626L97.9755 0.666626C98.9121 0.667811 99.8099 1.04012 100.472 1.70197C101.135 2.36382 101.508 3.26122 101.51 4.19751V27.016C101.511 28.9615 99.923 30.5432 97.9763 30.5432Z" fill="#A6A6A6"/>
<path d="M100.841 27.0162C100.841 27.3922 100.767 27.7645 100.623 28.1119C100.479 28.4593 100.268 28.7748 100.002 29.0406C99.7356 29.3063 99.4197 29.517 99.0721 29.6607C98.7245 29.8043 98.352 29.878 97.9758 29.8776H4.21069C3.45072 29.8784 2.72155 29.5774 2.18353 29.0408C1.64552 28.5042 1.34273 27.7759 1.34174 27.0162V4.1969C1.34273 3.43678 1.6454 2.70813 2.18331 2.17093C2.72121 1.63373 3.45037 1.33189 4.21069 1.3317H97.9751C98.3514 1.3317 98.7241 1.40581 99.0717 1.54981C99.4194 1.69381 99.7353 1.90487 100.001 2.17094C100.267 2.43701 100.478 2.75287 100.622 3.10049C100.766 3.44811 100.84 3.82067 100.84 4.1969L100.841 27.0162Z" fill="black"/>
<path d="M23.1916 15.4477C23.17 13.0397 25.1638 11.8682 25.255 11.8137C24.1258 10.1678 22.3756 9.94289 21.7605 9.92495C20.2906 9.7703 18.8647 10.8043 18.1159 10.8043C17.3521 10.8043 16.199 9.9399 14.9562 9.9653C13.357 9.98995 11.8608 10.9156 11.0403 12.3531C9.34685 15.284 10.6098 19.5912 12.2322 21.9603C13.0438 23.1213 13.9922 24.4161 15.2335 24.3705C16.4479 24.3212 16.9015 23.5972 18.367 23.5972C19.819 23.5972 20.245 24.3705 21.5109 24.3414C22.8143 24.3212 23.6348 23.1759 24.418 22.0051C25.3559 20.676 25.7325 19.3656 25.7475 19.2983C25.7176 19.2879 23.2171 18.333 23.1916 15.4477ZM20.8002 8.36646C21.4534 7.54986 21.9003 6.4389 21.7762 5.31149C20.8309 5.35333 19.6486 5.96522 18.9678 6.76389C18.3655 7.46768 17.8274 8.62123 17.9664 9.70605C19.0283 9.78524 20.1187 9.17036 20.8002 8.36646Z" fill="white"/>
<path d="M97.9766 0.666626H47.7532L67.4248 30.5432H97.9766C98.913 30.5424 99.8109 30.1704 100.473 29.5088C101.136 28.8472 101.509 27.9499 101.511 27.0138V4.19751C101.509 3.26116 101.136 2.36365 100.474 1.70175C99.8112 1.03986 98.9132 0.667614 97.9766 0.666626V0.666626Z" fill="url(#paint0_linear_9_42)"/>
<path d="M40.782 24.2039H39.0849L38.1552 21.2834H34.9238L34.0382 24.2039H32.3859L35.5882 14.2612H37.5656L40.782 24.2039ZM37.875 20.0581L37.0342 17.4619C36.9453 17.1967 36.7779 16.5721 36.5328 15.5889H36.5029C36.4042 16.0117 36.2466 16.6363 36.0306 17.4619L35.2041 20.0581H37.875ZM49.001 20.5311C49.001 21.7503 48.67 22.7141 48.0071 23.4217C47.4137 24.0515 46.6761 24.366 45.7965 24.366C44.8467 24.366 44.1636 24.0276 43.7489 23.3492V27.1109H42.1556V19.3909C42.1556 18.6251 42.1354 17.8399 42.0966 17.0345H43.4978L43.5867 18.1709H43.6166C44.1479 17.3147 44.9543 16.8866 46.0364 16.8866C46.8824 16.8866 47.5886 17.2206 48.1536 17.8892C48.7178 18.5594 49.001 19.4395 49.001 20.5311ZM47.3779 20.5893C47.3779 19.8915 47.2209 19.3162 46.9056 18.8627C46.561 18.3913 46.0984 18.1552 45.5185 18.1552C45.1254 18.1552 44.7682 18.2867 44.4491 18.546C44.1293 18.8074 43.92 19.1489 43.8221 19.5718C43.7784 19.7299 43.7536 19.8927 43.7481 20.0566V21.2528C43.7481 21.7735 43.9081 22.2136 44.2279 22.5737C44.5478 22.9323 44.9633 23.1123 45.4744 23.1123C46.0745 23.1123 46.5416 22.88 46.8757 22.419C47.2105 21.9566 47.3779 21.3469 47.3779 20.5893ZM57.2492 20.5311C57.2492 21.7503 56.9181 22.7141 56.2552 23.4217C55.6611 24.0515 54.9243 24.366 54.0439 24.366C53.0941 24.366 52.411 24.0276 51.9963 23.3492V27.1109H50.403V19.3909C50.403 18.6251 50.3828 17.8399 50.344 17.0345H51.7452L51.8341 18.1709H51.864C52.3946 17.3147 53.201 16.8866 54.2838 16.8866C55.129 16.8866 55.8352 17.2206 56.4017 17.8892C56.9652 18.5594 57.2492 19.4395 57.2492 20.5311ZM55.6252 20.5893C55.6252 19.8915 55.4676 19.3162 55.1522 18.8627C54.8077 18.3913 54.3466 18.1552 53.7667 18.1552C53.3736 18.1552 53.0164 18.2867 52.6958 18.546C52.3759 18.8074 52.1674 19.1489 52.0695 19.5718C52.0209 19.769 51.9948 19.9296 51.9948 20.0566V21.2528C51.9948 21.7735 52.1555 22.2136 52.4738 22.5737C52.7937 22.9315 53.2092 23.1123 53.7218 23.1123C54.3227 23.1123 54.7897 22.88 55.1231 22.419C55.4578 21.9566 55.6252 21.3469 55.6252 20.5893ZM66.4711 21.4149C66.4711 22.2614 66.1751 22.9495 65.587 23.4807C64.9398 24.0604 64.0363 24.3511 62.878 24.3511C61.8078 24.3511 60.9499 24.1449 60.3027 23.7317L60.6711 22.4041C61.3699 22.818 62.1374 23.0242 62.9729 23.0242C63.5737 23.0242 64.0408 22.8882 64.3741 22.6185C64.7081 22.348 64.877 21.9864 64.877 21.5352C64.877 21.131 64.7373 20.7925 64.463 20.5169C64.1873 20.2419 63.7314 19.9857 63.0909 19.7503C61.3497 19.1011 60.4783 18.1515 60.4783 16.9023C60.4783 16.0864 60.7862 15.4185 61.4005 14.8963C62.0148 14.3748 62.8294 14.114 63.8427 14.114C64.7477 14.114 65.5018 14.2717 66.1004 14.5862L65.7006 15.8847C65.1371 15.5799 64.5011 15.4275 63.7897 15.4275C63.2277 15.4275 62.7868 15.5657 62.4714 15.8406C62.2061 16.0864 62.0716 16.386 62.0716 16.7417C62.0716 17.1339 62.2248 17.4596 62.5297 17.7152C62.7943 17.9505 63.277 18.2068 63.975 18.4817C64.8314 18.8269 65.4607 19.2288 65.8635 19.6905C66.2693 20.1523 66.4711 20.7283 66.4711 21.4149ZM71.7523 18.2299H69.9962V21.7108C69.9962 22.5961 70.3055 23.0376 70.9258 23.0376C71.2105 23.0376 71.4467 23.0137 71.6335 22.9637L71.6776 24.1733C71.3637 24.2906 70.9505 24.3496 70.4386 24.3496C69.8093 24.3496 69.3176 24.1576 68.9626 23.7735C68.6091 23.3895 68.4313 22.7463 68.4313 21.8408V18.2269H67.385V17.0315H68.4313V15.7189L69.9962 15.2467V17.0315H71.7523V18.2299ZM79.6605 20.5602C79.6605 21.6622 79.3451 22.567 78.7159 23.2745C78.0575 24.0029 77.1816 24.366 76.0898 24.366C75.0361 24.366 74.1983 24.0171 73.5736 23.32C72.9488 22.6215 72.6364 21.7414 72.6364 20.6797C72.6364 19.5688 72.9593 18.6588 73.6027 17.9512C74.2476 17.243 75.116 16.8888 76.2079 16.8888C77.2601 16.8888 78.1053 17.2385 78.745 17.9363C79.3563 18.6132 79.6605 19.4873 79.6605 20.5602ZM78.0089 20.5968C78.0089 19.9401 77.8669 19.3768 77.5822 18.9053C77.2481 18.336 76.7698 18.0514 76.1503 18.0514C75.5121 18.0514 75.0226 18.336 74.6893 18.9053C74.4038 19.3768 74.2618 19.9498 74.2618 20.6267C74.2618 21.2841 74.4038 21.849 74.6893 22.3189C75.0338 22.8882 75.5143 23.1729 76.1369 23.1729C76.7459 23.1729 77.2235 22.8822 77.5687 22.3047C77.8617 21.8221 78.0089 21.255 78.0089 20.5968ZM84.8416 18.4354C84.6759 18.4055 84.5078 18.3907 84.3394 18.3913C83.7789 18.3913 83.3455 18.602 83.0406 19.0264C82.776 19.3999 82.643 19.8721 82.643 20.4421V24.2039H81.0497V19.2923C81.0511 18.5397 81.0357 17.7872 81.0034 17.0353H82.3912L82.4494 18.407H82.4935C82.6624 17.9356 82.927 17.5553 83.2902 17.2706C83.6226 17.0219 84.0266 16.8872 84.4418 16.8866C84.589 16.8866 84.722 16.8971 84.8401 16.9157L84.8416 18.4354ZM91.9673 20.28C91.9713 20.5222 91.9518 20.7641 91.909 21.0025H87.1291C87.1471 21.7108 87.3787 22.2532 87.8227 22.6267C88.2255 22.9599 88.7463 23.1273 89.386 23.1273C90.0938 23.1273 90.7394 23.0152 91.3201 22.7888L91.5697 23.8938C90.8911 24.1897 90.09 24.3369 89.1656 24.3369C88.0536 24.3369 87.1807 24.0096 86.5455 23.3567C85.9118 22.7029 85.5942 21.8243 85.5942 20.7238C85.5942 19.6435 85.8894 18.7432 86.4805 18.0252C87.0993 17.2587 87.9355 16.8754 88.9877 16.8754C90.0213 16.8754 90.8037 17.2587 91.335 18.0252C91.7558 18.6326 91.9673 19.3857 91.9673 20.28ZM90.448 19.8669C90.4592 19.3939 90.3546 18.9868 90.1386 18.6423C89.8628 18.1985 89.4384 17.9774 88.8696 17.9774C88.3488 17.9774 87.9243 18.1933 87.6015 18.6266C87.3362 18.9711 87.1785 19.385 87.1299 19.8654L90.448 19.8669Z" fill="white"/>
<path d="M34.4645 10.746C34.0214 10.746 33.638 10.7243 33.3189 10.6877V5.88071C33.7652 5.81179 34.2162 5.77781 34.6678 5.7791C36.495 5.7791 37.3365 6.67789 37.3365 8.14299C37.3365 9.83297 36.3426 10.746 34.4645 10.746ZM34.7321 6.39548C34.4855 6.39548 34.2755 6.41042 34.1013 6.44628V10.1004C34.1955 10.1154 34.3764 10.1221 34.6304 10.1221C35.8277 10.1221 36.5092 9.44074 36.5092 8.16466C36.5092 7.02679 35.8927 6.39548 34.7321 6.39548ZM39.9588 10.7826C38.929 10.7826 38.2617 10.0138 38.2617 8.97005C38.2617 7.88224 38.9432 7.10673 40.0171 7.10673C41.032 7.10673 41.7143 7.83891 41.7143 8.91252C41.7143 10.0138 41.011 10.7826 39.9588 10.7826ZM39.9887 7.67903C39.423 7.67903 39.0605 8.20799 39.0605 8.94764C39.0605 9.67309 39.4305 10.202 39.9812 10.202C40.532 10.202 40.9019 9.63648 40.9019 8.93269C40.9019 8.21546 40.5395 7.67903 39.9887 7.67903ZM47.5867 7.17921L46.4844 10.7026H45.7662L45.3096 9.17252C45.1961 8.79825 45.1015 8.41847 45.0264 8.03466H45.0114C44.9539 8.41868 44.8448 8.80344 44.7289 9.17252L44.2432 10.7026H43.5175L42.4803 7.17921H43.2851L43.6842 8.85425C43.7784 9.25321 43.8576 9.62976 43.9233 9.98539H43.9383C43.9958 9.68878 44.09 9.31821 44.2282 8.86172L44.7289 7.17995H45.3672L45.8462 8.82586C45.962 9.22482 46.0562 9.61631 46.1294 9.98613H46.1503C46.2012 9.62378 46.2811 9.23901 46.3895 8.82586L46.8177 7.17995L47.5867 7.17921ZM51.6446 10.7026H50.8614V8.67942C50.8614 8.05632 50.6223 7.74403 50.1507 7.74403C49.6866 7.74403 49.3675 8.14299 49.3675 8.60695V10.7026H48.5844V8.18632C48.5844 7.87477 48.5769 7.54081 48.5552 7.17846H49.2442L49.2809 7.72236H49.3025C49.5133 7.34581 49.9407 7.10673 50.4198 7.10673C51.1596 7.10673 51.6454 7.6723 51.6454 8.59276L51.6446 10.7026ZM53.8044 10.7026H53.0204V5.56244H53.8044V10.7026ZM56.6599 10.7826C55.6308 10.7826 54.9627 10.0138 54.9627 8.97005C54.9627 7.88224 55.6443 7.10673 56.7174 7.10673C57.733 7.10673 58.4146 7.83891 58.4146 8.91252C58.4153 10.0138 57.7113 10.7826 56.6599 10.7826ZM56.689 7.67903C56.1233 7.67903 55.7608 8.20799 55.7608 8.94764C55.7608 9.67309 56.1315 10.202 56.6808 10.202C57.2323 10.202 57.6015 9.63648 57.6015 8.93269C57.6022 8.21546 57.2405 7.67903 56.689 7.67903ZM61.5025 10.7026L61.4457 10.2969H61.4248C61.1856 10.6234 60.8366 10.7826 60.3942 10.7826C59.7627 10.7826 59.3143 10.3403 59.3143 9.74556C59.3143 8.87591 60.0684 8.42615 61.3739 8.42615V8.36115C61.3739 7.89719 61.1281 7.66483 60.6423 7.66483C60.2948 7.66483 59.9899 7.75225 59.7216 7.92632L59.5624 7.41156C59.8883 7.20834 60.2948 7.10673 60.7724 7.10673C61.693 7.10673 62.1579 7.59236 62.1579 8.56436V9.86211C62.1579 10.2177 62.1736 10.4934 62.2087 10.7034L61.5025 10.7026ZM61.3949 8.94764C60.525 8.94764 60.0886 9.15832 60.0886 9.65815C60.0886 10.028 60.3135 10.2088 60.6259 10.2088C61.0242 10.2088 61.3949 9.9047 61.3949 9.49154V8.94764ZM65.961 10.7026L65.9244 10.1371H65.9027C65.6777 10.5644 65.2996 10.7826 64.7712 10.7826C63.9215 10.7826 63.2923 10.0354 63.2923 8.98425C63.2923 7.88224 63.9447 7.10599 64.8355 7.10599C65.3071 7.10599 65.6411 7.26512 65.8294 7.58489H65.8451V5.56244H66.6291V9.75303C66.6291 10.0937 66.6373 10.4127 66.6582 10.7026H65.961ZM65.8451 8.62936C65.8451 8.13627 65.5186 7.71564 65.0201 7.71564C64.4394 7.71564 64.0845 8.2304 64.0845 8.95511C64.0845 9.66562 64.4529 10.152 65.0044 10.152C65.4969 10.152 65.8451 9.72389 65.8451 9.2166V8.62936ZM71.5995 10.7826C70.5704 10.7826 69.9031 10.0138 69.9031 8.97005C69.9031 7.88224 70.5846 7.10673 71.6578 7.10673C72.6734 7.10673 73.3549 7.83891 73.3549 8.91252C73.3557 10.0138 72.6525 10.7826 71.5995 10.7826ZM71.6286 7.67903C71.0637 7.67903 70.7012 8.20799 70.7012 8.94764C70.7012 9.67309 71.0711 10.202 71.6212 10.202C72.1727 10.202 72.5418 9.63648 72.5418 8.93269C72.5433 8.21546 72.1809 7.67903 71.6286 7.67903ZM77.5668 10.7026H76.7829V8.67942C76.7829 8.05632 76.5437 7.74403 76.0722 7.74403C75.6081 7.74403 75.2897 8.14299 75.2897 8.60695V10.7026H74.5058V8.18632C74.5058 7.87477 74.4983 7.54081 74.4767 7.17846H75.1657L75.2023 7.72236H75.224C75.434 7.34581 75.8622 7.10599 76.3405 7.10599C77.0803 7.10599 77.5668 7.67156 77.5668 8.59201V10.7026ZM82.8361 7.76644H81.9745V9.47734C81.9745 9.91292 82.1254 10.1303 82.4303 10.1303C82.5686 10.1303 82.6844 10.1154 82.7779 10.0937L82.7995 10.6884C82.6478 10.7467 82.4445 10.7758 82.192 10.7758C81.5747 10.7758 81.2055 10.4352 81.2055 9.54309V7.76644H80.6913V7.17921H81.2055V6.53369L81.9745 6.30134V7.17846H82.8361V7.76644ZM86.9823 10.7026H86.1998V8.69436C86.1998 8.06379 85.9614 7.74477 85.4891 7.74477C85.0833 7.74477 84.7052 8.02046 84.7052 8.57856V10.7026H83.9227V5.56244H84.7052V7.67903H84.7209C84.9675 7.29501 85.3247 7.10599 85.7806 7.10599C86.5264 7.10599 86.9823 7.68575 86.9823 8.60695V10.7026ZM91.23 9.12919H88.8797C88.8946 9.79636 89.3363 10.1729 89.9902 10.1729C90.3377 10.1729 90.6576 10.1146 90.94 10.0063L91.0619 10.5502C90.7286 10.6951 90.3362 10.7676 89.8796 10.7676C88.7773 10.7676 88.1249 10.0713 88.1249 8.99172C88.1249 7.91138 88.793 7.09926 89.7914 7.09926C90.6919 7.09926 91.2569 7.76644 91.2569 8.77431C91.262 8.89325 91.2529 9.01237 91.23 9.12919ZM90.5118 8.57109C90.5118 8.02719 90.2376 7.64317 89.7369 7.64317C89.287 7.64317 88.9313 8.03466 88.8804 8.57109H90.5118Z" fill="white"/>
<defs>
<linearGradient id="paint0_linear_9_42" x1="74.6311" y1="30.6225" x2="74.6311" y2="-77.1268" gradientUnits="userSpaceOnUse">
<stop stop-color="#1A1A1A" stop-opacity="0.1"/>
<stop offset="0.123" stop-color="#212121" stop-opacity="0.151"/>
<stop offset="0.308" stop-color="#353535" stop-opacity="0.227"/>
<stop offset="0.532" stop-color="#575757" stop-opacity="0.318"/>
<stop offset="0.783" stop-color="#858585" stop-opacity="0.421"/>
<stop offset="1" stop-color="#B3B3B3" stop-opacity="0.51"/>
</linearGradient>
</defs>
</svg>
